<?xml version="1.0" encoding="UTF-8"?>
<svg width="22.7130234px" height="23.152px" viewBox="0 0 22.7130234 23.152" version="1.1" xmlns="http://www.w3.org/2000/svg" xmlns:xlink="http://www.w3.org/1999/xlink">
    <title>ic_activity log</title>
    <g id="Page-1" stroke="none" stroke-width="1" fill="none" fill-rule="evenodd">
        <g id="3.-View-Sent-Docs-Approve" transform="translate(-1307.834288, -556.000000)" fill="#56A9FF" fill-rule="nonzero">
            <g id="Group-34" transform="translate(1011.571429, 556.000000)">
                <g id="ic_activity-log" transform="translate(296.262860, 0.000000)">
                    <path d="M19.3105183,3.39392942 C14.8222751,-1.09431376 7.55327255,-1.11870638 2.9918515,3.2475998 L2.08919366,2.32063645 C1.77203726,2.00348005 1.23536464,2.14980531 1.13788125,2.58896405 L0.0159075732,7.12599248 C-0.0815888815,7.54064534 0.28423517,7.90664363 0.6989011,7.80898601 L5.26032215,6.73566691 C5.6993023,6.63817045 5.84578873,6.10150219 5.52864975,5.78435449 L4.40650184,4.66220658 C8.18740242,1.0521415 14.1879448,1.10097031 17.895624,4.80870608 C21.6765246,8.58960666 21.6765246,14.7121122 17.895624,18.4685766 C17.6761296,18.688071 17.4566438,18.9075568 17.2126305,19.1027413 C16.7979776,19.4442294 16.7248215,20.0783593 17.0906325,20.4932081 C17.2857953,20.7372041 17.5784415,20.8590278 17.8467603,20.8590278 C18.0662548,20.8590278 18.2857405,20.785863 18.4809251,20.6395334 C18.7735843,20.3955374 19.0419119,20.1517244 19.3102308,19.8834055 C23.8472592,15.3463771 23.8472592,7.95541145 19.3104009,3.3939904 L19.3105183,3.39392942 Z" id="Path"></path>
                    <path d="M9.65103838,21.2005464 C9.48020724,21.1762152 9.30955033,21.1517132 9.13870612,21.1030499 C8.60206835,20.9810519 8.06538702,21.3470459 7.96790363,21.8837011 C7.87040718,22.4203388 8.21189959,22.9570202 8.74855478,23.0545035 C8.94371757,23.1033367 9.16320764,23.1276684 9.35837043,23.152 L9.50470005,23.152 C9.99250901,23.152 10.4071837,22.7861803 10.480318,22.298171 C10.5534828,21.7858387 10.1876587,21.2736807 9.65101225,21.2005464 L9.65103838,21.2005464 Z" id="Path"></path>
                    <path d="M5.08961733,19.2247437 C4.65063718,18.9075873 4.04082153,18.9807477 3.69932477,19.3954049 C3.35783672,19.8343851 3.43099717,20.4442007 3.87015591,20.7858717 C4.04098705,20.9078697 4.18731232,21.0298677 4.35796487,21.1516914 C4.52879601,21.2736894 4.72378457,21.3468542 4.94343145,21.3468542 C5.26058786,21.3468542 5.5532471,21.2005246 5.74838811,20.9322013 C6.06554452,20.4932212 5.96788254,19.8588822 5.50439216,19.5417345 C5.35789266,19.4442381 5.21156304,19.3465718 5.08956942,19.224748 L5.08961733,19.2247437 Z" id="Path"></path>
                    <path d="M14.0904963,20.8102644 C13.9196652,20.8590975 13.7733399,20.9077608 13.6026873,20.956594 C13.0660496,21.1029236 12.7488583,21.6395875 12.8953883,22.1762253 C13.0173863,22.6152054 13.4077206,22.9080476 13.8467007,22.9080476 C13.9441972,22.9080476 14.0175319,22.9080476 14.1150283,22.8837164 C14.3101911,22.8348832 14.5053495,22.7617184 14.7004949,22.7128853 C15.2128272,22.5420541 15.5054516,21.9810629 15.3346596,21.4689049 C15.18833,20.9322671 14.6028373,20.6395992 14.0905486,20.8102604 L14.0904963,20.8102644 Z" id="Path"></path>
                    <path d="M2.30885797,15.7365982 C2.08936354,15.2487892 1.47955225,15.0292991 0.991743286,15.2487892 C0.503934325,15.4927851 0.28444425,16.0780949 0.503934325,16.5659039 C0.60143078,16.7610667 0.674765468,16.9317236 0.772261922,17.1268907 C0.943093065,17.4683788 1.28459418,17.6635285 1.65039646,17.6635285 C1.8212276,17.6635285 1.96755286,17.6146953 2.11389991,17.5415305 C2.60170887,17.2732029 2.77254437,16.6877015 2.52855277,16.1998925 C2.45538796,16.0537328 2.38222315,15.9074075 2.30888846,15.7365633 L2.30885797,15.7365982 Z" id="Path"></path>
                    <path d="M15.7004096,13.3949061 L13.236798,11.833778 C13.236798,11.7606132 13.2856311,11.71178 13.2856311,11.6386152 C13.2856311,10.7847862 12.7978222,10.0774872 12.0903489,9.71168488 L12.0903489,5.85747575 C12.0903489,5.29648891 11.6513687,4.85733452 11.0902077,4.85733452 C10.5292208,4.85733452 10.0900664,5.29631467 10.0900664,5.85747575 L10.0900664,9.73585971 C9.38276741,10.1016794 8.89478422,10.8091788 8.89478422,11.66279 C8.89478422,12.8580723 9.87040214,13.8580393 11.0900334,13.8580393 C11.4803547,13.8580393 11.8461613,13.7117096 12.1633525,13.5165512 L14.6269642,15.0776793 C14.7977953,15.1751757 14.9684523,15.2240089 15.163602,15.2240089 C15.4807584,15.2240089 15.8222464,15.0531778 15.9929077,14.7605054 C16.3102383,14.2973505 16.1639087,13.6875348 15.7004227,13.3948669 L15.7004096,13.3949061 Z M11.0902033,12.4191139 C10.6755505,12.4191139 10.3095522,12.0776259 10.3095522,11.6384628 C10.3095522,11.2238099 10.6510402,10.8578116 11.0902033,10.8578116 C11.5048562,10.8578116 11.8463312,11.1992997 11.8463312,11.6384628 C11.8708327,12.0776171 11.5048431,12.4191139 11.0902033,12.4191139 Z" id="Shape"></path>
                </g>
            </g>
        </g>
    </g>
</svg>