<?xml version="1.0" encoding="UTF-8"?>
<svg width="9.45365854px" height="12.92px" viewBox="0 0 9.45365854 12.92" version="1.1" xmlns="http://www.w3.org/2000/svg" xmlns:xlink="http://www.w3.org/1999/xlink">
    <title>ic_file-document</title>
    <g id="Page-1" stroke="none" stroke-width="1" fill="none" fill-rule="evenodd">
        <g id="3.-View-Sent-Docs-Approve" transform="translate(-143.710331, -824.000000)" fill="#56A9FF" fill-rule="nonzero">
            <g id="Group-8" transform="translate(64.000000, 724.000000)">
                <g id="Group-10" transform="translate(23.906548, 10.000000)">
                    <g id="Group-21" transform="translate(5.243614, 46.000000)">
                        <g id="Group-3" transform="translate(0.000000, 35.419383)">
                            <g id="ic_file-document" transform="translate(50.560169, 8.580617)">
                                <path d="M0,0 L0,12.92 L9.45365854,12.92 L9.45365854,3.15121951 L6.61756098,3.15121951 C6.4435799,3.15121951 6.30246716,3.01010115 6.30246716,2.8361257 L6.30246716,0 L0,0 Z M6.93268293,0.315093815 L6.93268293,2.5208912 L9.13848031,2.5208912 L6.93268293,0.315093815 Z M1.57560976,5.04192308 L6.61756098,5.04192308 C6.79165179,5.04192308 6.93265479,5.18304145 6.93265479,5.3570169 C6.93265479,5.53110771 6.79153643,5.67211071 6.61756098,5.67211071 L1.57560976,5.67211071 C1.40151895,5.67211071 1.26051594,5.53099235 1.26051594,5.3570169 C1.26051594,5.18292609 1.4016343,5.04192308 1.57560976,5.04192308 Z M1.57560976,7.56295497 L7.87804878,7.56295497 C8.05213959,7.56295497 8.1931426,7.70407333 8.1931426,7.87804878 C8.1931426,8.05213959 8.05202423,8.1931426 7.87804878,8.1931426 L1.57560976,8.1931426 C1.40151895,8.1931426 1.26051594,8.05202423 1.26051594,7.87804878 C1.26051594,7.70395797 1.4016343,7.56295497 1.57560976,7.56295497 Z M1.57560976,10.0839868 L7.87804878,10.0839868 C8.05213959,10.0839868 8.1931426,10.2251052 8.1931426,10.3990807 C8.1931426,10.5731715 8.05202423,10.7141745 7.87804878,10.7141745 L1.57560976,10.7141745 C1.40151895,10.7141745 1.26051594,10.5730561 1.26051594,10.3990807 C1.26051594,10.2249899 1.4016343,10.0839868 1.57560976,10.0839868 Z" id="Shape"></path>
                            </g>
                        </g>
                    </g>
                </g>
            </g>
        </g>
    </g>
</svg>