<?xml version="1.0" encoding="UTF-8"?>
<svg width="16px" height="16px" viewBox="0 0 16 16" version="1.1" xmlns="http://www.w3.org/2000/svg" xmlns:xlink="http://www.w3.org/1999/xlink">
    <title>noun-info-1180179</title>
    <g id="Page-1" stroke="none" stroke-width="1" fill="none" fill-rule="evenodd">
        <g id="3.5-View-Sent-Docs-Upload-Consultant-Doc" transform="translate(-195.000000, -608.000000)" fill="#56A9FF" fill-rule="nonzero">
            <g id="Group-14" transform="translate(155.000000, 480.000000)">
                <g id="Group-10" transform="translate(24.000000, 76.000000)">
                    <g id="Group" transform="translate(0.000000, 42.000000)">
                        <g id="noun-info-1180179" transform="translate(16.000000, 10.000000)">
                            <path d="M8,0 C3.6,0 0,3.6 0,8 C0,12.4 3.6,16 8,16 C12.4,16 16,12.4 16,8 C16,3.6 12.4,0 8,0 Z M8,14 C4.7,14 2,11.3 2,8 C2,4.7 4.7,2 8,2 C11.3,2 14,4.7 14,8 C14,11.3 11.3,14 8,14 Z" id="Shape"></path>
                            <path d="M9,4 C9,4.55222857 8.55222857,5 8,5 C7.44777143,5 7,4.55222857 7,4 C7,3.44777143 7.44777143,3 8,3 C8.55222857,3 9,3.44777143 9,4" id="Path"></path>
                            <path d="M8,6 C7.4,6 7,6.4 7,7 L7,12 C7,12.6 7.4,13 8,13 C8.6,13 9,12.6 9,12 L9,7 C9,6.4 8.6,6 8,6 Z" id="Path"></path>
                        </g>
                    </g>
                </g>
            </g>
        </g>
    </g>
</svg>