<?xml version="1.0" encoding="UTF-8"?>
<svg width="12.7103311px" height="9.888087px" viewBox="0 0 12.7103311 9.888087" version="1.1" xmlns="http://www.w3.org/2000/svg" xmlns:xlink="http://www.w3.org/1999/xlink">
    <title>ic_package folder</title>
    <g id="Page-1" stroke="none" stroke-width="1" fill="none" fill-rule="evenodd">
        <g id="3.-View-Sent-Docs-Approve" transform="translate(-115.000000, -825.000000)" fill="#56A9FF" fill-rule="nonzero">
            <g id="Group-8" transform="translate(64.000000, 724.000000)">
                <g id="Group-10" transform="translate(23.906548, 10.000000)">
                    <g id="Group-21" transform="translate(5.243614, 46.000000)">
                        <g id="Group-3" transform="translate(0.000000, 35.419383)">
                            <g id="ic_package-folder" transform="translate(21.849838, 9.580617)">
                                <path d="M2.98394938,3.12673863 L10.3484505,3.12673863 L10.3484505,1.9363559 C10.3484505,1.66654999 10.1262514,1.44435938 9.856454,1.44435938 L5.31712787,1.44435938 C4.79335947,1.44435938 4.364765,1.01579326 4.364765,0.491996518 C4.364765,0.222190604 4.1425659,0 3.87276849,0 L0.507953315,0 C0.238147401,0 0,0.222199107 0,0.491996518 L0,9.01513683 L2.34899357,3.55524806 C2.46014981,3.28555269 2.7141293,3.12679531 2.98392104,3.12679531 L2.98394938,3.12673863 Z" id="Path"></path>
                                <path d="M12.4435241,3.58701995 L2.98394938,3.58701995 C2.88873577,3.58701995 2.79352216,3.65045884 2.74591819,3.72984037 L0.127019505,9.888087 L9.98338847,9.888087 C10.0786021,9.888087 10.1738157,9.8246481 10.2214197,9.74526658 L12.6815723,3.95207065 C12.7291791,3.87268913 12.713347,3.77747551 12.6657405,3.69809683 C12.6021911,3.6187153 12.5228096,3.58694059 12.443428,3.58694059 L12.4435241,3.58701995 Z" id="Shape"></path>
                            </g>
                        </g>
                    </g>
                </g>
            </g>
        </g>
    </g>
</svg>