<?xml version="1.0" encoding="UTF-8"?>
<svg width="15.8995046px" height="14.790015px" viewBox="0 0 15.8995046 14.790015" version="1.1" xmlns="http://www.w3.org/2000/svg" xmlns:xlink="http://www.w3.org/1999/xlink">
    <title>Shape 2</title>
    <g id="Page-1" stroke="none" stroke-width="1" fill="none" fill-rule="evenodd">
        <g id="3.5-View-Sent-Docs-Upload-Consultant-Doc" transform="translate(-227.000000, -609.000000)" fill="#56A9FF" fill-rule="nonzero">
            <g id="Group-14" transform="translate(155.000000, 480.000000)">
                <g id="Group-10" transform="translate(24.000000, 76.000000)">
                    <g id="Group" transform="translate(0.000000, 42.000000)">
                        <g id="Group-39" transform="translate(16.000000, 10.000000)">
                            <g id="Shape-2" transform="translate(32.000000, 1.000000)">
                                <path d="M2.40342655,0 L2.40342655,3.69752851 L13.4960121,3.69752851 L13.4960121,0 L2.40342655,0 Z M1.10932458,4.06728136 C0.494841561,4.06728136 0,4.56195785 0,5.17660594 L0,10.7228987 C0,11.3373817 0.494676493,11.8322233 1.10932458,11.8322233 L2.03370671,11.8322233 L2.03370671,8.50444763 L13.8657979,8.50444763 L13.8657979,11.8322233 L14.7901801,11.8322233 C15.4046631,11.8322233 15.8995046,11.3375468 15.8995046,10.7228987 L15.8995046,5.17660594 C15.8995046,4.56212292 15.4048282,4.06728136 14.7901801,4.06728136 L1.10932458,4.06728136 Z M11.6472808,5.73110316 C11.9535583,5.73110316 12.2019431,5.97947804 12.2019431,6.28576545 C12.2019431,6.59204296 11.9535682,6.84042774 11.6472808,6.84042774 C11.3409934,6.84042774 11.0926185,6.59205287 11.0926185,6.28576545 C11.0926185,5.97948794 11.3409934,5.73110316 11.6472808,5.73110316 L11.6472808,5.73110316 Z M13.4960451,5.73110316 C13.8023226,5.73110316 14.0507074,5.97947804 14.0507074,6.28576545 C14.0507074,6.59204296 13.8023325,6.84042774 13.4960451,6.84042774 C13.1897577,6.84042774 12.9413828,6.59205287 12.9413828,6.28576545 C12.9413828,5.97948794 13.1897577,5.73110316 13.4960451,5.73110316 L13.4960451,5.73110316 Z M13.4960451,8.87396938 L13.4960451,14.790015 L2.40345956,14.790015 L2.40345956,8.87396938 L13.4960451,8.87396938 Z M10.9413156,12.4 L4.94131557,12.4 C4.6651732,12.4 4.44131557,12.6238576 4.44131557,12.9 C4.44131557,13.1761424 4.6651732,13.4 4.94131557,13.4 L10.9413156,13.4 C11.2174579,13.4 11.4413156,13.1761424 11.4413156,12.9 C11.4413156,12.6238576 11.2174579,12.4 10.9413156,12.4 Z M10.9413156,10.4 L4.94131557,10.4 C4.6651732,10.4 4.44131557,10.6238576 4.44131557,10.9 C4.44131557,11.1761424 4.6651732,11.4 4.94131557,11.4 L10.9413156,11.4 C11.2174579,11.4 11.4413156,11.1761424 11.4413156,10.9 C11.4413156,10.6238576 11.2174579,10.4 10.9413156,10.4 Z" id="Shape"></path>
                            </g>
                        </g>
                    </g>
                </g>
            </g>
        </g>
    </g>
</svg>