<?xml version="1.0" encoding="UTF-8"?>
<svg width="24.4818538px" height="16.739163px" viewBox="0 0 24.4818538 16.739163" version="1.1" xmlns="http://www.w3.org/2000/svg" xmlns:xlink="http://www.w3.org/1999/xlink">
    <title>ic_send mail</title>
    <g id="Page-1" stroke="none" stroke-width="1" fill="none" fill-rule="evenodd">
        <g id="3.-View-Sent-Docs-Approve" transform="translate(-1362.547312, -561.000000)" fill="#56A9FF" fill-rule="nonzero">
            <g id="Group-34" transform="translate(1011.571429, 556.000000)">
                <g id="ic_send-mail" transform="translate(350.975883, 5.000000)">
                    <path d="M0.319234055,0.810972196 C0.110120829,1.12267127 -0.00111904149,1.48970598 0,1.86501888 L0,12.2387657 C-0.00112082433,12.6765697 0.15115035,13.1011806 0.429910161,13.4386683 L7.27025153,8.28913829 L0.319234055,0.810972196 Z" id="Path"></path>
                    <path d="M9.44354401,9.0910811 C9.46142498,9.09484556 9.4789301,9.09785688 9.49624875,9.10049211 C9.85669658,9.15582776 10.2267332,9.01673214 10.5107837,8.71896335 L18.5128653,0.329956365 C18.2105815,0.11538378 17.8490206,0.000187921466 17.4783817,0 L1.823078,0 C1.51157166,0 1.20573189,0.0813121728 0.935414087,0.236217283 L8.82426086,8.7211124 L8.82444908,8.7211124 C8.9868855,8.90613313 9.2031542,9.03544238 9.44314436,9.09097076 L9.44354401,9.0910811 Z" id="Path"></path>
                    <path d="M13.260759,9.20287028 C13.5621031,8.30070269 14.0650147,7.47929314 14.7311722,6.80060754 C15.8795169,5.61911155 17.4577681,4.95358045 19.1054539,4.95603789 C19.1713324,4.95603789 19.2366472,4.95603789 19.3025239,4.95980234 L19.3025239,1.86295295 C19.3030856,1.54862298 19.224784,1.23919824 19.0749576,0.962857312 L12.0577773,8.31974179 L13.260759,9.20287028 Z" id="Path"></path>
                    <path d="M22.904985,7.40460641 C21.9126633,6.38028986 20.5482571,5.80096171 19.1220777,5.79830251 C17.6958984,5.7956764 16.3292275,6.37012283 15.3333401,7.39087368 C13.2431233,9.52156582 13.2489537,12.9947882 15.3465158,15.1332381 C16.3390302,16.1573619 17.7034364,16.73669 19.1296158,16.7391553 C20.5557952,16.7415944 21.9222733,16.1671434 22.9181607,15.1463926 C25.0083775,13.0157005 25.0021616,9.5424781 22.904985,7.40451004 L22.904985,7.40460641 Z M21.7338488,8.60036515 L20.1896644,15.0200515 L20.1898527,15.0200515 C20.1473145,15.2037568 20.0449218,15.3678894 19.8986708,15.4870316 C19.7524197,15.6059907 19.5707863,15.6729967 19.3823686,15.6773398 L19.3565819,15.6773398 C19.1728766,15.6784531 18.9936911,15.6199161 18.8461101,15.5105603 C18.6985436,15.4010165 18.5905032,15.2468583 18.5381791,15.0706843 L17.9057511,13.0184856 L15.781853,13.2746562 C15.5318934,13.3030777 15.2819338,13.2204481 15.0980598,13.0487891 C14.9141859,12.8771301 14.8147851,12.6335694 14.8258917,12.3822943 C14.8369969,12.1310192 14.9578367,11.8972642 15.1562239,11.7425422 L20.3770677,7.71986635 C20.5658565,7.57437177 20.8067815,7.51414053 21.0418761,7.55347876 C21.2767779,7.59281747 21.4849515,7.72814935 21.6163375,7.92691244 C21.7477187,8.12586345 21.7902564,8.37036373 21.7341643,8.60208054 L21.7338488,8.60036515 Z" id="Shape"></path>
                    <path d="M13.0323622,10.0832101 L11.4686146,8.93544358 L11.1196493,9.30115803 L11.1198375,9.30115803 C10.737745,9.71148214 10.2047082,9.94789698 9.64417215,9.95560658 C9.55100165,9.95579479 9.45801907,9.9486424 9.365793,9.93452565 C9.33473632,9.92982009 9.30367772,9.92398518 9.27243458,9.91758573 L9.27262279,9.91777394 C8.86041464,9.82799085 8.4869665,9.61097046 8.20484338,9.29739218 L7.84439555,8.9105968 L1.13463551,13.9637568 C1.35278342,14.0548554 1.58693357,14.1019128 1.82353633,14.1019128 L13.5922386,14.1019128 C12.9784582,12.8573909 12.7819598,11.4481726 13.0320881,10.0833809 L13.0323622,10.0832101 Z" id="Path"></path>
                    <path d="M20.8975983,8.38179803 L20.8911988,8.38593895 L15.670355,12.409193 L15.6705432,12.4093812 C15.6675317,12.4114517 15.6648964,12.4138986 15.662638,12.4167217 C15.6633909,12.4250038 15.6665907,12.4327206 15.672049,12.4389321 L15.680519,12.4389321 L17.913026,12.1701514 C17.9414474,12.1665752 17.9702457,12.164693 17.9988531,12.164881 C18.1515032,12.1650692 18.3000093,12.2141935 18.4227317,12.3051089 C18.545454,12.3960244 18.635613,12.5238254 18.6804105,12.6696958 L19.3423759,14.8246732 L19.3421877,14.8246732 C19.3429406,14.8284376 19.3444464,14.8320137 19.3465169,14.8352137 C19.3531047,14.8372841 19.3602573,14.8372841 19.3670331,14.8352137 C19.3681624,14.8322021 19.3691035,14.8290021 19.3696682,14.8258027 L20.9138526,8.40611627 C20.9142291,8.4029165 20.9142291,8.39952842 20.9138526,8.39614053 C20.9104647,8.38936476 20.9046295,8.38428269 20.8974774,8.38179803 L20.8975983,8.38179803 Z" id="Path"></path>
                </g>
            </g>
        </g>
    </g>
</svg>