<?xml version="1.0" encoding="UTF-8"?>
<svg width="23.7658687px" height="23.6422116px" viewBox="0 0 23.7658687 23.6422116" version="1.1" xmlns="http://www.w3.org/2000/svg" xmlns:xlink="http://www.w3.org/1999/xlink">
    <title>ic_synchronize</title>
    <g id="Page-1" stroke="none" stroke-width="1" fill="none" fill-rule="evenodd">
        <g id="3.-View-Sent-Docs-Approve" transform="translate(-1252.068420, -556.000000)" fill="#56A9FF" fill-rule="nonzero">
            <g id="Group-34" transform="translate(1011.571429, 556.000000)">
                <g id="ic_synchronize" transform="translate(240.496991, 0.000000)">
                    <path d="M16.4793093,1.92124521 L17.716051,8.68506408 L19.8946656,6.50644943 L19.9863568,6.65377464 C21.2295001,8.60074214 21.7302112,10.9302153 21.3967842,13.2161181 C21.0633572,15.5020209 19.9181231,17.5912122 18.1705965,19.1020796 C16.4230698,20.6128974 14.190166,21.4439092 11.8801953,21.4435618 C11.5000617,21.4431741 11.1204939,21.418168 10.7436951,21.3685445 L10.2127626,21.298956 L9.82662445,23.4888355 L10.4157169,23.5555209 C10.9018831,23.6117355 11.390739,23.6406169 11.880235,23.642 C14.7929448,23.6594231 17.6093831,22.6004627 19.7893872,20.668184 C21.9689944,18.7357565 23.3576863,16.066306 23.6891779,13.1724038 C24.0204611,10.2787002 23.2710518,7.36435277 21.584603,4.98932437 L21.5179176,4.89492369 L23.552125,2.87173296 L16.4793093,1.92124521 Z" id="Path"></path>
                    <path d="M2.25097363,18.8587806 L0.208429354,20.8903082 L7.26701774,21.8407166 L6.04422052,15.0768977 L3.87662251,17.2444957 L3.77388492,17.0971705 C2.52533258,15.1463323 2.02055221,12.8114501 2.35164685,10.5189473 C2.68273652,8.22654366 3.82757862,6.12971018 5.57704062,4.61164721 C7.32670112,3.09363386 9.56387267,2.25602199 11.8803442,2.25155578 C12.2604777,2.25194345 12.6400456,2.27714316 13.0168444,2.32676667 L13.5421693,2.39616156 L13.9368379,0.189608326 L13.3810932,0.100631604 L13.3808993,0.100631604 C12.8840588,0.0283287124 12.3824048,-0.00501398676 11.8803537,0.00060846869 C8.73073658,0.0042915492 5.71103634,1.25710072 3.48388894,3.484397 C1.25679116,5.71149478 0.00397111825,8.73119501 0.000298905508,11.8808618 C-0.0173411143,14.3481421 0.746204712,16.75761 2.1816429,18.7642757 L2.25097363,18.8587806 Z" id="Path"></path>
                </g>
            </g>
        </g>
    </g>
</svg>