<?xml version="1.0" encoding="UTF-8"?>
<svg width="20.5714286px" height="24px" viewBox="0 0 20.5714286 24" version="1.1" xmlns="http://www.w3.org/2000/svg" xmlns:xlink="http://www.w3.org/1999/xlink">
    <title>ic_view supporting documents</title>
    <g id="Page-1" stroke="none" stroke-width="1" fill="none" fill-rule="evenodd">
        <g id="3.-View-Sent-Docs-Approve" transform="translate(-1419.029166, -556.000000)" fill="#56A9FF" fill-rule="nonzero">
            <g id="Group-34" transform="translate(1011.571429, 556.000000)">
                <g id="ic_view-supporting-documents" transform="translate(407.457737, 0.000000)">
                    <path d="M17.1428571,4.28571429 L13.7142857,0.514285714 L13.7142857,3.42857143 C13.7142857,3.94285714 14.0571429,4.28571429 14.5714286,4.28571429 L17.1428571,4.28571429 Z" id="Path"></path>
                    <path d="M12,0 L12,5.14285714 C12,5.65714286 12.3428571,6 12.7714286,6 L17.1428571,6 L17.1428571,17.3142857 C16.5428571,17.2285714 16.0285714,17.1428571 15.4285714,17.1428571 C12.8571429,17.1428571 10.3714286,18.3428571 8.91428571,20.4 L8.14285714,21.4285714 L8.82857143,22.4571429 C9.25714286,23.0571429 9.77142857,23.5714286 10.3714286,24 L0.771428571,24 C0.342857143,24 0,23.6571429 0,23.1428571 L0,0.771428571 C0,0.342857143 0.342857143,0 0.771428571,0 L12,0 Z M11.5,14 L2.5,14 C2.22385763,14 2,14.2238576 2,14.5 C2,14.7761424 2.22385763,15 2.5,15 L11.5,15 C11.7761424,15 12,14.7761424 12,14.5 C12,14.2238576 11.7761424,14 11.5,14 Z M7.5,10 L2.5,10 C2.22385763,10 2,10.2238576 2,10.5 C2,10.7761424 2.22385763,11 2.5,11 L7.5,11 C7.77614237,11 8,10.7761424 8,10.5 C8,10.2238576 7.77614237,10 7.5,10 Z M4.5,6 L2.5,6 C2.22385763,6 2,6.22385763 2,6.5 C2,6.77614237 2.22385763,7 2.5,7 L4.5,7 C4.77614237,7 5,6.77614237 5,6.5 C5,6.22385763 4.77614237,6 4.5,6 Z" id="Combined-Shape"></path>
                    <path d="M15.4285714,18.8571429 C13.3714286,18.8571429 11.4857143,19.8 10.2857143,21.4285714 C11.4857143,23.0571429 13.3714286,24 15.4285714,24 C17.4857143,24 19.3714286,23.0571429 20.5714286,21.4285714 C19.3714286,19.8 17.4857143,18.8571429 15.4285714,18.8571429 Z M15.4285714,23.1428571 C14.4857143,23.1428571 13.6285714,22.3714286 13.6285714,21.4285714 C13.6285714,20.4857143 14.4,19.7142857 15.4285714,19.7142857 C16.3714286,19.7142857 17.2285714,20.4857143 17.2285714,21.4285714 C17.2285714,22.3714286 16.3714286,23.1428571 15.4285714,23.1428571 Z" id="Shape"></path>
                    <path d="M16.2857143,21.4285714 C16.2857143,21.9019151 15.9019151,22.2857143 15.4285714,22.2857143 C14.9552278,22.2857143 14.5714286,21.9019151 14.5714286,21.4285714 C14.5714286,20.9552278 14.9552278,20.5714286 15.4285714,20.5714286 C15.9019151,20.5714286 16.2857143,20.9552278 16.2857143,21.4285714" id="Path"></path>
                </g>
            </g>
        </g>
    </g>
</svg>